PathFileType	3	(X/Y/Z)	D:\minhoCalibration\240510\subject5_KPNP\preferred\preferred19.trc
DataRate	CameraRate	NumFrames	NumMarkers	Units	OrigDataRate	OrigDataStartFrame	OrigNumFrames
200.0	200.0	30	10	mm	200.0	210	121	
Frame#	Time	Left_Ankle_Outer1			Left_Ankle_Inner1			Left_Knee_Outer1			Left_Knee_Inner1			Left_Wrist1			Right_Wrist1			Right_Knee_Inner1			Right_Knee_Outer1			Right_Ankle_Inner1			Right_Ankle_Outer1			
		X1	Y1	Z1	X2	Y2	Z2	X3	Y3	Z3	X4	Y4	Z4	X5	Y5	Z5	X6	Y6	Z6	X7	Y7	Z7	X8	Y8	Z8	X9	Y9	Z9	X10	Y10	Z10	
210	1.04	-200.05147	83.04538	-704.87885	-241.45219	97.354347	-676.716	-10.154645	513.50732	-609.38281	-76.694756	505.12027	-542.94531	-42.624641	952.24146	-818.99982	-184.78189	1172.4091	-609.2887	-214.6851	992.76807	-164.65065	-202.73105	1078.2422	-186.61995	-428.1275	986.92975	235.69635	-460.26077	1075.431	197.32794
211	1.045	-199.77309	82.927315	-704.54724	-240.78775	97.126076	-677.42395	-11.577214	514.08844	-606.00134	-78.65847	505.52582	-539.02411	-42.430885	952.68182	-816.45923	-188.67854	1171.5605	-608.0639	-213.41617	995.1037	-164.23351	-203.72043	1079.2498	-184.63062	-432.50369	982.80365	234.80916	-465.78235	1069.9039	197.10301
212	1.05	-198.57912	83.400299	-704.70337	-240.62016	96.592545	-676.73663	-13.535591	514.48657	-602.27252	-81.453537	505.62112	-536.7879	-42.33709	952.87402	-813.97485	-192.1055	1170.8354	-607.59265	-215.61533	997.93652	-163.89742	-207.0417	1080.0332	-184.14555	-433.85699	978.12122	230.95332	-471.75644	1064.4113	197.42502
213	1.055	-198.52602	82.638824	-704.0921	-240.48195	96.383888	-676.85223	-15.359732	515.24957	-598.7735	-84.16922	505.2529	-535.08789	-41.958355	952.97369	-811.89227	-195.77341	1170.4553	-607.46411	-220.37582	1000.0938	-163.83302	-210.96912	1081.3508	-185.077	-438.58975	970.93829	232.03929	-475.64175	1058.1105	198.73549
214	1.06	-198.38959	82.140739	-703.70947	-240.39813	95.442574	-676.90558	-18.246502	515.23474	-595.03217	-87.633865	505.43695	-532.94128	-41.777531	953.00537	-809.51495	-198.82352	1169.7194	-608.06805	-226.76892	1001.2562	-164.51385	-216.9953	1083.1373	-186.63513	-439.0351	963.01324	228.91217	-478.77795	1051.0167	200.56685
215	1.065	-198.32526	81.511993	-703.34259	-240.71843	94.841324	-676.89294	-21.034529	515.71564	-592.06439	-91.350571	505.55377	-531.38666	-41.480793	952.62762	-807.37482	-201.45969	1170.0302	-608.59235	-232.81627	1001.9505	-165.25974	-224.96959	1085.7218	-187.94885	-440.13937	956.39258	232.96799	-482.67004	1042.5717	201.86751
216	1.07	-198.61015	80.867813	-703.19635	-240.8781	93.659264	-677.53174	-23.663286	516.05719	-589.6261	-95.205086	505.27115	-530.44299	-40.806469	952.50519	-805.31592	-204.05151	1170.4377	-609.05927	-238.15961	1002.4719	-165.65781	-235.09261	1088.0446	-189.37383	-438.2146	949.92438	232.15395	-486.54285	1033.3672	202.94273
217	1.075	-199.79333	79.531105	-702.94238	-242.1667	92.299973	-677.4892	-26.971052	516.21759	-587.80847	-99.426018	505.15802	-529.8493	-40.277527	951.93774	-802.99792	-205.6076	1171.2827	-609.89532	-242.62273	1002.9897	-165.85866	-246.22046	1089.4061	-190.86536	-436.75522	945.69165	235.88	-490.21127	1023.6112	204.13663
218	1.08	-201.24084	78.297272	-702.65546	-243.90584	90.871185	-676.86261	-30.215786	516.01373	-586.66547	-103.4528	504.72409	-529.9469	-39.632679	951.38934	-800.55164	-206.39586	1172.2711	-611.16748	-246.22003	1003.4524	-165.82686	-259.22394	1088.6658	-192.36424	-434.61777	939.63745	237.02187	-493.03741	1013.9764	204.92027
219	1.085	-202.45782	77.773491	-702.80029	-245.89871	89.310181	-676.19641	-33.645058	515.27374	-586.06812	-107.49328	504.18759	-530.56903	-38.943848	950.9574	-797.81329	-207.7054	1173.4249	-612.10529	-248.86482	1003.9874	-165.64281	-271.44067	1086.3795	-193.79012	-433.32458	934.60516	238.08363	-495.33252	1004.9197	205.41199
220	1.09	-204.12033	76.791397	-702.82385	-247.12915	88.032814	-676.71478	-36.674683	514.52618	-586.21826	-111.22851	503.54703	-531.49371	-38.177597	950.39471	-794.83099	-208.90157	1174.636	-613.04895	-251.54463	1004.3719	-165.02953	-282.36011	1083.0433	-195.17993	-432.20493	929.34253	238.51025	-497.52142	996.00671	205.72313
221	1.095	-205.89049	76.092499	-702.4823	-248.35515	87.313072	-676.3902	-39.087856	513.68896	-586.98419	-114.46553	502.93338	-532.53162	-37.350574	949.94531	-791.71204	-210.03474	1175.2461	-613.87054	-254.78384	1004.4123	-164.34581	-292.61917	1079.333	-196.02313	-431.40884	923.93805	238.91125	-499.65405	986.93762	205.90701
222	1.1	-206.75781	75.82299	-702.42188	-249.71599	86.598198	-676.01758	-41.234566	512.74725	-587.508	-117.01209	502.32596	-533.57251	-36.537388	949.5401	-788.51178	-212.48157	1175.7693	-614.07452	-258.7428	1003.3201	-164.02611	-300.55249	1075.384	-196.69635	-430.77567	918.04712	239.14716	-501.69022	977.63739	206.03154
223	1.105	-206.97308	75.783318	-702.46881	-249.93794	86.461449	-676.15826	-42.158649	512.27625	-588.38092	-118.89435	501.87772	-534.18335	-35.039001	950.02148	-785.63574	-215.62314	1175.2081	-613.38745	-263.18869	1000.7759	-164.46147	-307.80914	1071.3799	-196.98384	-430.26169	911.95044	238.89619	-503.75046	968.10529	205.93124
224	1.11	-207.07945	75.751122	-701.93298	-250.60609	86.07238	-675.71899	-42.71109	511.92404	-588.65796	-119.66135	501.74469	-534.78003	-33.918262	950.6156	-782.68762	-218.48984	1174.5463	-613.85193	-268.87823	997.23059	-165.50484	-314.19009	1067.1487	-197.1241	-429.76978	905.22491	238.26193	-505.7009	958.05505	205.45839
225	1.115	-206.26288	75.970505	-702.29852	-249.75514	86.602501	-675.95135	-42.853367	512.01923	-588.96973	-119.7138	502.03531	-535.42017	-32.598476	951.68195	-779.90674	-221.80363	1173.7926	-614.12201	-274.24664	993.10016	-166.65271	-320.56891	1062.7477	-197.4343	-429.8739	898.2334	236.57727	-507.68329	947.60852	204.66991
226	1.12	-206.07957	75.753357	-701.98041	-248.99304	86.955879	-676.7002	-42.379971	512.91162	-589.67615	-119.27716	502.65067	-536.22992	-31.146917	953.159	-777.36389	-225.02519	1173.2501	-615.04449	-279.65012	988.81482	-167.97554	-327.06836	1058.0745	-198.03525	-430.17468	890.03967	235.30905	-509.75168	936.60815	203.51012
227	1.125	-205.43729	75.967949	-702.0744	-248.04262	87.328651	-677.32666	-42.06604	513.98724	-590.41071	-118.63642	503.65036	-536.95343	-29.868771	954.8407	-774.77411	-229.43452	1171.1671	-613.93121	-284.96423	984.47412	-169.32292	-333.67709	1053.1604	-198.86221	-430.71542	880.78839	233.67284	-512.04114	925.08502	201.97621
228	1.13	-204.47083	76.325676	-702.62598	-248.01759	87.572723	-676.71808	-41.726868	515.10284	-591.25732	-117.90367	504.61847	-537.89093	-28.47154	956.78979	-772.32214	-232.78256	1169.8687	-615.05243	-290.13171	980.0108	-170.68033	-340.27017	1047.8323	-199.8649	-432.05701	871.34583	230.8356	-514.53711	913.00586	199.90543
229	1.135	-204.18654	76.005127	-702.50159	-247.04604	87.764442	-678.15082	-41.485363	516.13959	-592.27625	-117.16762	505.41574	-538.92126	-26.915403	959.01306	-769.91614	-236.6265	1167.4712	-615.43652	-295.45233	975.37659	-171.82106	-346.34915	1042.1682	-200.96272	-433.77658	861.04346	227.81161	-517.38983	900.76019	197.38399
230	1.14	-203.92097	75.684631	-702.39166	-246.8575	87.859581	-677.80896	-41.266205	517.16443	-593.42896	-116.77174	506.00858	-539.74219	-25.502947	961.26227	-767.38391	-239.82164	1166.2333	-616.1546	-299.0408	970.66864	-173.38486	-351.84888	1036.2834	-202.11247	-436.44244	850.81219	224.6105	-520.67102	888.35614	194.36995
231	1.145	-202.60236	76.161728	-703.29382	-246.22446	87.869286	-678.28931	-41.300457	517.73645	-594.27252	-116.44888	506.48392	-540.76941	-23.48827	963.75116	-765.26807	-244.72977	1164.8839	-615.30035	-302.73651	965.43964	-174.93091	-356.6431	1030.1631	-203.38315	-439.62659	839.57898	221.33524	-524.48566	875.91333	190.86426
232	1.15	-202.07451	76.113853	-703.55664	-245.33356	87.839249	-679.22736	-41.273258	518.32709	-595.28467	-116.61771	506.69867	-541.57037	-21.934736	966.03278	-762.82031	-248.90604	1162.3845	-614.80847	-306.25534	959.63953	-176.89333	-361.0719	1023.8235	-204.80243	-443.55365	827.76074	217.3716	-528.78064	863.33936	186.78354
233	1.155	-201.785	75.706795	-703.57056	-244.89217	87.980782	-679.7691	-41.675213	518.38434	-596.06458	-116.83694	506.84631	-542.59918	-19.910402	968.43848	-760.78296	-252.29147	1160.5189	-615.62372	-309.51971	953.24243	-179.10762	-364.66806	1017.0672	-206.56604	-448.2724	815.487	212.83722	-533.5495	850.50476	182.22864
234	1.16	-201.22749	76.044891	-703.89923	-244.76321	87.850945	-679.83905	-42.299984	518.50116	-596.73395	-117.42915	506.98477	-543.54718	-18.108839	970.53442	-758.64191	-255.09865	1157.8209	-616.60205	-312.67886	946.22583	-181.69054	-367.95193	1010.2294	-208.53598	-453.37863	802.66162	208.05202	-538.71069	837.32831	177.07971
235	1.165	-201.65331	75.393852	-703.70105	-244.56013	87.897774	-680.29675	-42.71146	518.47443	-597.13623	-118.21207	507.02155	-544.52521	-16.091366	972.58569	-756.44794	-257.6329	1156.1023	-616.69922	-315.66013	938.84064	-184.42545	-370.93387	1003.4073	-210.60843	-458.86621	789.38947	202.58997	-544.17749	823.61487	171.42537
236	1.17	-201.56252	75.59726	-703.82385	-244.88007	88.003876	-679.74231	-43.458355	518.35004	-597.68005	-119.44579	507.10809	-545.42322	-14.257973	974.32458	-754.11676	-259.64688	1154.1154	-618.3678	-318.54718	931.42871	-187.33003	-373.65613	996.6366	-212.75508	-465.09851	775.49066	197.38992	-549.87146	809.38287	165.14218
237	1.175	-201.97682	75.180641	-703.75677	-245.18573	87.627502	-679.62158	-44.465912	518.25378	-598.18988	-120.75842	507.18732	-546.54431	-12.375853	975.91803	-751.79742	-260.83173	1153.4324	-619.52808	-321.36807	924.00214	-190.31056	-376.31116	989.97852	-215.05223	-470.06378	761.33423	190.25024	-555.65179	794.60736	158.26067
238	1.18	-201.95901	75.390701	-703.95496	-245.33887	87.135017	-680.16986	-45.281479	518.47229	-598.77045	-122.46475	507.43497	-547.68591	-10.482659	977.22681	-749.43176	-261.9971	1152.7858	-620.86798	-324.11975	916.45343	-193.51405	-378.88635	983.19006	-217.4633	-476.34689	746.76624	183.78056	-561.52747	779.34686	150.77209
239	1.185	-202.1637	75.184425	-703.9906	-245.61723	86.850937	-680.2597	-46.608238	518.34235	-599.30212	-124.32665	507.77411	-549.0238	-8.7027044	978.51971	-747.09558	-263.27539	1152.5125	-621.56915	-326.56339	909.46881	-196.48868	-381.4621	976.31335	-219.91988	-482.09445	731.64948	176.43172	-567.37842	763.59564	142.59505
